<svg width="31" height="30" viewBox="0 0 31 30" fill="none" xmlns="http://www.w3.org/2000/svg">
<path fill-rule="evenodd" clip-rule="evenodd" d="M13.3607 6.60363C13.3607 10.2511 10.3696 13.2072 6.68077 13.2072C2.9911 13.2072 0 10.2511 0 6.60363C0 2.95611 2.9911 0 6.68077 0C10.3696 0 13.3607 2.95611 13.3607 6.60363Z" fill="#00AAFF"/>
<path fill-rule="evenodd" clip-rule="evenodd" d="M30.0792 21.6987C30.0792 26.1365 26.4404 29.7337 21.9513 29.7337C17.4621 29.7337 13.8225 26.1365 13.8225 21.6987C13.8225 17.2609 17.4621 13.6644 21.9513 13.6644C26.4404 13.6644 30.0792 17.2609 30.0792 21.6987Z" fill="#97CF26"/>
<path fill-rule="evenodd" clip-rule="evenodd" d="M27.1822 6.60362C27.1822 9.46003 24.8397 11.775 21.9511 11.775C19.0617 11.775 16.72 9.46003 16.72 6.60362C16.72 3.74721 19.0617 1.43225 21.9511 1.43225C24.8397 1.43225 27.1822 3.74721 27.1822 6.60362Z" fill="#FF6163"/>
<path fill-rule="evenodd" clip-rule="evenodd" d="M10.463 21.6986C10.463 23.7639 8.76897 25.4377 6.68061 25.4377C4.59143 25.4377 2.89746 23.7639 2.89746 21.6986C2.89746 19.6333 4.59143 17.9587 6.68061 17.9587C8.76897 17.9587 10.463 19.6333 10.463 21.6986Z" fill="#A169F7"/>
</svg>
