<svg width="282" height="76" viewBox="0 0 282 76" fill="none" xmlns="http://www.w3.org/2000/svg">
<path d="M22.4807 8.14078e-05C22.4751 0.00101319 22.4691 0.00288131 22.4634 0.00474487C22.4257 0.0112674 22.3903 0.0299312 22.3633 0.056953L21.0449 1.28191L19.7265 2.50692L18.4081 3.73193C18.3866 3.75234 18.37 3.77786 18.3602 3.80581L17.2506 6.81619C17.2409 6.84396 17.2379 6.87396 17.2422 6.90304L17.4511 8.6884L17.6599 10.4738L17.7687 11.386L15.1798 18.4233C12.521 22.2353 10.6942 26.5461 9.80607 31.0773L9.12293 27.1286L9.40575 26.2121L9.9366 24.4918L10.4587 22.7672C10.4671 22.7402 10.4716 22.7128 10.4671 22.6847L9.91455 19.5223C9.91081 19.493 9.90111 19.464 9.88412 19.4397L8.80503 18.0019L7.73029 16.5597L6.6512 15.1174C6.60966 15.0594 6.53395 15.032 6.46409 15.0436C6.44085 15.0473 6.41892 15.0529 6.39885 15.0653C6.39419 15.069 6.38952 15.0737 6.38579 15.0783C6.35657 15.1029 6.33473 15.1371 6.32484 15.1739L5.79835 16.8941L5.26751 18.6143L4.74101 20.3302C4.73261 20.3586 4.73121 20.3923 4.73634 20.4214L5.2846 23.5795C5.2902 23.6084 5.3014 23.6389 5.31941 23.6621L6.39416 25.0999L7.4689 26.5421L8.02149 27.2806L9.3051 34.6827C9.22661 35.6126 9.18326 36.5498 9.18326 37.489C9.18326 41.2732 9.81977 44.9094 10.9847 48.3011L8.41746 45.2299L8.1999 44.2916L7.79959 42.541L7.39057 40.7861C7.38404 40.7581 7.3734 40.7301 7.35576 40.7078L5.29329 38.2447C5.27509 38.2214 5.25054 38.2046 5.22366 38.1925L3.56586 37.4801L1.91241 36.772L0.263313 36.0597C0.176588 36.0205 0.0590762 36.0597 0.0152956 36.1426C0.0133356 36.1519 0.0123087 36.1538 0.0109087 36.1603C-0.0021112 36.1957 -0.0033527 36.2367 0.00652192 36.2733L0.411182 38.0239L0.811491 39.7788L1.21615 41.5294C1.22306 41.5583 1.236 41.5853 1.25531 41.6077L3.31343 44.0751C3.33265 44.0974 3.3558 44.1114 3.38305 44.1226L5.0365 44.835L6.68995 45.5475L7.53843 45.908L12.3552 51.6767C14.3428 55.8885 17.1852 59.6207 20.6616 62.6453L16.8717 61.2553L16.2147 60.5515L14.9877 59.2353L13.7563 57.919C13.7371 57.8985 13.7131 57.8817 13.6867 57.8715L10.6669 56.7682C10.6395 56.757 10.6094 56.7524 10.5799 56.7552L8.79161 56.968L7.00328 57.1765L5.21494 57.3851C5.1201 57.3944 5.04084 57.4855 5.04525 57.5805C5.04618 57.5898 5.04805 57.5917 5.04991 57.5982C5.05645 57.6355 5.07511 57.6709 5.10209 57.6981L6.32912 59.0144L7.55616 60.3306L8.78318 61.6468C8.80362 61.6683 8.8292 61.6851 8.8572 61.6944L11.8726 62.802C11.9004 62.8113 11.9304 62.8151 11.9596 62.8113L13.7479 62.6029L15.5362 62.3942L16.45 62.2857L23.5424 64.8877C27.2742 67.4807 31.5613 69.3317 36.1869 70.2309L32.2187 70.9172L31.2962 70.6348L29.5731 70.1092L27.8501 69.5836C27.823 69.5743 27.7955 69.5706 27.7674 69.5743L24.5997 70.1259C24.5704 70.1259 24.5413 70.1436 24.517 70.1604L23.0724 71.2378L21.6278 72.3107L20.1832 73.3836C20.1057 73.4386 20.084 73.5555 20.1354 73.6356C20.1391 73.6449 20.1438 73.6449 20.1484 73.6487C20.1731 73.6776 20.2072 73.6999 20.2442 73.7092L21.9672 74.2348L23.6859 74.7648L25.409 75.2904C25.4375 75.2998 25.4669 75.3007 25.496 75.2998L28.6637 74.7568C28.6926 74.7474 28.7187 74.7353 28.742 74.7176L30.1866 73.6447L31.6312 72.5717L32.3665 72.0244L39.807 70.7386C40.3346 70.7823 40.865 70.8111 41.3996 70.8298V70.8513C41.5998 70.8513 41.8005 70.8419 42 70.8419C42.1995 70.8419 42.4003 70.8513 42.6005 70.8513V70.8298C43.135 70.8111 43.6655 70.7823 44.193 70.7386L51.6336 72.0244L52.3689 72.5717L53.8135 73.6447L55.2581 74.7176C55.2813 74.7353 55.3075 74.7512 55.3364 74.7568L58.5041 75.2998C58.5332 75.3091 58.5627 75.2998 58.591 75.2904L60.3141 74.7648L62.0328 74.2348L63.7559 73.7092C63.7929 73.6989 63.827 73.6776 63.8516 73.6487C63.8563 73.6487 63.861 73.6393 63.8647 73.6356C63.9161 73.5555 63.8944 73.4389 63.8168 73.3836L62.3722 72.3107L60.9276 71.2378L59.483 70.1604C59.4588 70.1436 59.4297 70.1297 59.4003 70.1259L56.2327 69.5743C56.2046 69.5743 56.1771 69.5745 56.15 69.5836L54.4269 70.1092L52.7039 70.6348L51.7814 70.9171L47.8131 70.2309C52.4388 69.3317 56.7258 67.4807 60.4577 64.8877L67.5501 62.2856L68.4638 62.3942L70.2522 62.6029L72.0405 62.8113C72.0696 62.8113 72.0998 62.8123 72.1275 62.802L75.1429 61.6943C75.1709 61.685 75.1964 61.6682 75.2169 61.6467L76.4439 60.3306L77.6709 59.0144L78.898 57.6981C78.9251 57.6711 78.9435 57.6357 78.9502 57.5982C78.952 57.5889 78.953 57.5871 78.9548 57.5805C78.9595 57.4855 78.88 57.3942 78.7851 57.3851L76.9968 57.1765L75.2084 56.968L73.4201 56.7552C73.3906 56.7552 73.3606 56.7551 73.3331 56.7682L70.3134 57.8715C70.287 57.8817 70.263 57.8985 70.2438 57.919L69.0124 59.2353L67.7854 60.5515L67.1283 61.2552L63.3385 62.6453C66.8149 59.6207 69.6573 55.8885 71.6449 51.6767L76.4616 45.908L77.3101 45.5474L78.9636 44.835L80.617 44.1226C80.6443 44.1114 80.6674 44.0974 80.6866 44.0751L82.7447 41.6077C82.7641 41.5853 82.7769 41.5583 82.7839 41.5294L83.1886 39.7788L83.5889 38.0238L83.9936 36.2733C84.0035 36.2369 84.002 36.1959 83.9889 36.1602C83.988 36.1509 83.9861 36.1481 83.9842 36.1425C83.9405 36.0577 83.8229 36.0207 83.7362 36.0596L82.0871 36.772L80.4337 37.4801L78.7759 38.1925C78.749 38.2046 78.7245 38.2214 78.7063 38.2447L76.6438 40.7077C76.6261 40.7301 76.6151 40.758 76.609 40.786L76.2 42.541L75.7997 44.2916L75.5821 45.2299L73.0149 48.3011C74.1798 44.9094 74.8163 41.2731 74.8163 37.489C74.8163 36.5498 74.773 35.6126 74.6945 34.6827L75.9781 27.2806L76.5306 26.5421L77.6054 25.0999L78.6801 23.6621C78.6981 23.6389 78.7094 23.6084 78.7149 23.5795L79.2632 20.4214C79.2688 20.3923 79.2669 20.3586 79.2585 20.3302L78.732 18.6143L78.2012 16.8941L77.6747 15.1739C77.6648 15.1371 77.6431 15.1029 77.6138 15.0783C77.61 15.0737 77.6054 15.069 77.6007 15.0653C77.5806 15.0524 77.5587 15.0474 77.5354 15.0436C77.4656 15.032 77.3899 15.0593 77.3483 15.1174L76.2693 16.5597L75.1945 18.0019L74.1154 19.4397C74.0984 19.464 74.089 19.493 74.085 19.5223L73.5324 22.6847C73.5286 22.7128 73.5325 22.7402 73.5408 22.7672L74.0629 24.4918L74.5938 26.212L74.8766 27.1286L74.1934 31.0773C73.3053 26.5461 71.4786 22.2353 68.8197 18.4233L66.2308 11.386L66.3396 10.4738L66.5484 8.6884L66.7573 6.90304C66.761 6.87396 66.7582 6.84387 66.7489 6.81619L65.6393 3.80581C65.6295 3.77786 65.6129 3.75234 65.5914 3.73193L64.273 2.50692L62.9546 1.28191L61.6362 0.056953C61.6092 0.0299312 61.5738 0.0114743 61.5361 0.00485862C61.5305 0.00299505 61.5246 0.00205872 61.5188 0.000195151C61.4236 -0.00446377 61.3321 0.074937 61.323 0.169615L61.1141 1.95498L60.9053 3.74035L60.6921 5.52572C60.6893 5.55516 60.6939 5.58517 60.7051 5.61256L61.8103 8.62727C61.8208 8.65364 61.8373 8.67757 61.8582 8.69676L63.1766 9.92616L64.495 11.1511L65.1999 11.8071L67.0013 16.7071L66.7315 16.9286L57.742 9.44394L57.6115 9.13991L56.8979 7.48915L56.1843 5.83846L53.7171 3.78375L51.9636 3.37979L50.2057 2.97577L49.8881 2.9019L49.8402 2.86277L49.8185 2.88881L48.4522 2.5717L49.0048 3.86189L48.9482 3.93138L49.0875 4.04433L49.1615 4.22245L49.8751 5.87753L50.5887 7.52823L53.0558 9.58288L54.8137 9.9869L56.5672 10.3909L56.7586 10.4343L65.857 18.0102C66.9315 19.355 67.889 20.7761 68.7201 22.263L61.5145 18.9355L61.4188 18.8139L60.3049 17.402L59.2171 16.025L56.3845 14.7131L54.6266 14.7783L52.8252 14.8391L51.3936 14.8912L52.2813 16.0119L53.3995 17.4238L54.483 18.8008L57.32 20.1126L59.0778 20.0475L60.8749 19.9867L61.1272 19.9783L69.5598 23.8748C71.6039 28.0911 72.684 32.743 72.684 37.4888C72.684 37.6353 72.6812 37.7816 72.6793 37.9276L68.1149 31.4638L68.0932 31.3117L67.8321 29.5307L67.5797 27.7975L65.787 25.2475L64.2293 24.4265L62.6411 23.5794L61.3749 22.9105L61.5795 24.3223L61.8449 26.1033L62.0929 27.8365L63.8899 30.3908L65.4477 31.2118L67.0315 32.0545L67.2577 32.1719L72.601 39.7478C72.2432 44.7504 70.7097 49.4279 68.2716 53.5008L67.5536 45.6078L67.6102 45.4643L68.2803 43.792L68.9286 42.1629L68.6545 39.0614L67.719 37.5714L66.7617 36.0466L66.0046 34.8347L65.4738 36.1596L64.808 37.8364L64.1554 39.4611L64.4382 42.567L65.3737 44.057L66.3222 45.5774L66.4571 45.7946L67.2925 55.0298C64.5602 59.044 60.9145 62.3866 56.6539 64.7646L59.9869 57.5754L60.1087 57.4798L61.5229 56.3678L62.9022 55.2818L64.2163 52.4538L64.151 50.6989L64.0901 48.9005L64.0379 47.4713L62.9153 48.3574L61.5012 49.4739L60.1218 50.5555L58.8078 53.3878L58.873 55.1428L58.934 56.9369L58.9424 57.1888L55.0394 65.6075C51.8616 67.1448 48.3827 68.1626 44.714 68.5483L42.9605 67.3145L47.4378 64.1652L47.5945 64.1438L49.3741 63.8875L51.1146 63.6355L53.6687 61.8415L54.4911 60.2864L55.3396 58.7008L56.0097 57.4366L54.5912 57.6452L52.8072 57.9058L51.0711 58.1535L48.5169 59.9475L47.6946 61.5027L46.8461 63.0839L46.7286 63.3098L41.9989 66.6373L37.2691 63.3098L37.1516 63.0839L36.3032 61.5027L35.4808 59.9475L32.9266 58.1535L31.1905 57.9058L29.4065 57.6452L27.988 57.4366L28.6581 58.7008L29.5066 60.2864L30.329 61.8415L32.8831 63.6355L34.6236 63.8875L36.4032 64.1438L36.5599 64.1652L41.0372 67.3145L39.2837 68.5483C35.6151 68.1626 32.1361 67.1448 28.9584 65.6075L25.0554 57.1888L25.0638 56.9369L25.1247 55.1428L25.1899 53.3878L23.8759 50.5555L22.4966 49.4739L21.0824 48.3574L19.9598 47.4713L19.9076 48.9005L19.8467 50.6989L19.7815 52.4538L21.0955 55.2818L22.4748 56.3678L23.889 57.4798L24.0108 57.5754L27.3438 64.7646C23.0832 62.3866 19.4375 59.044 16.7052 55.0298L17.5406 45.7946L17.6755 45.5774L18.624 44.057L19.5596 42.567L19.8424 39.4611L19.1897 37.8364L18.524 36.1596L17.9931 34.8347L17.236 36.0466L16.2788 37.5714L15.3433 39.0614L15.0691 42.1629L15.7175 43.792L16.3875 45.4643L16.4441 45.6078L15.7262 53.5008C13.2881 49.4279 11.7545 44.7504 11.3967 39.7478L16.74 32.1719L16.9662 32.0545L18.5501 31.2118L20.1078 30.3908L21.9048 27.8365L22.1529 26.1033L22.4183 24.3223L22.6228 22.9105L21.3566 23.5794L19.7684 24.4265L18.2107 25.2475L16.418 27.7975L16.1656 29.5307L15.9045 31.3117L15.8828 31.4638L11.3184 37.9276C11.3165 37.7816 11.3137 37.6353 11.3137 37.4888C11.3137 32.743 12.3939 28.0911 14.4379 23.8748L22.8705 19.9783L23.1229 19.9867L24.9199 20.0475L26.6778 20.1126L29.5147 18.8008L30.5982 17.4238L31.7164 16.0119L32.6041 14.8912L31.1725 14.8391L29.3712 14.7783L27.6133 14.7131L24.7807 16.025L23.6929 17.402L22.579 18.8139L22.4832 18.9355L15.2777 22.263C16.1087 20.7761 17.0662 19.355 18.1407 18.0102L27.2391 10.4343L27.4305 10.3909L29.1841 9.9869L30.9419 9.58288L33.409 7.52823L34.1226 5.87753L34.8362 4.22245L34.9103 4.04433L35.0495 3.93138L34.9929 3.86189L35.5455 2.5717L34.1792 2.88881L34.1575 2.86277L34.1096 2.9019L33.792 2.97577L32.0341 3.37979L30.2806 3.78375L27.8135 5.83846L27.0999 7.48915L26.3863 9.13985L26.2557 9.44394L17.2662 16.9286L16.9964 16.7071L18.7978 11.8071L19.5027 11.1511L20.8211 9.92616L22.1395 8.69676C22.1604 8.67757 22.1769 8.65364 22.1874 8.62727L23.2926 5.61256C23.3037 5.58517 23.3083 5.55516 23.3057 5.52572L23.0924 3.74035L22.8836 1.95498L22.6747 0.169615C22.6654 0.0749276 22.5741 -0.00420287 22.4789 0.000195151L22.4807 8.14078e-05ZM42.0001 67.992L42.9748 68.6783C42.6511 68.6942 42.3264 68.7072 42.0001 68.7128C41.6744 68.7035 41.3486 68.6942 41.0255 68.6783L42.0001 67.992Z" fill="#111111"/>
<path d="M262.398 37.96C262.398 39.736 262.67 41.392 263.214 42.928C263.758 44.448 264.534 45.68 265.542 46.624C266.55 47.552 267.734 48.016 269.094 48.016C270.342 48.016 271.438 47.552 272.382 46.624C273.342 45.68 274.086 44.448 274.614 42.928C275.142 41.392 275.406 39.736 275.406 37.96C275.406 36.184 275.142 34.536 274.614 33.016C274.086 31.48 273.342 30.248 272.382 29.32C271.438 28.376 270.342 27.904 269.094 27.904C267.734 27.904 266.55 28.376 265.542 29.32C264.534 30.248 263.758 31.48 263.214 33.016C262.67 34.536 262.398 36.184 262.398 37.96ZM253.422 15.976C253.23 15.976 253.102 15.936 253.038 15.856C252.974 15.776 252.942 15.64 252.942 15.448V13.408C252.942 13.264 252.966 13.16 253.014 13.096C253.062 13.032 253.158 13 253.302 13H261.894C262.07 13 262.198 13.024 262.278 13.072C262.358 13.12 262.398 13.224 262.398 13.384V29.368C262.398 29.752 262.414 29.976 262.446 30.04C262.478 30.088 262.55 30.016 262.662 29.824C263.478 28.32 264.526 27.136 265.806 26.272C267.086 25.408 268.606 24.976 270.366 24.976C272.286 24.976 274.054 25.488 275.67 26.512C277.286 27.52 278.582 29 279.558 30.952C280.534 32.888 281.022 35.224 281.022 37.96C281.022 40.696 280.526 43.04 279.534 44.992C278.558 46.944 277.254 48.432 275.622 49.456C273.99 50.48 272.214 50.992 270.294 50.992C268.598 50.992 267.118 50.6 265.854 49.816C264.606 49.016 263.59 47.888 262.806 46.432C262.646 46.144 262.534 46.032 262.47 46.096C262.422 46.144 262.398 46.456 262.398 47.032V49.576C262.398 49.832 262.35 50.04 262.254 50.2C262.174 50.36 261.998 50.44 261.726 50.44H253.446C253.238 50.44 253.102 50.416 253.038 50.368C252.974 50.32 252.942 50.192 252.942 49.984V47.896C252.942 47.72 252.982 47.608 253.062 47.56C253.158 47.496 253.294 47.464 253.47 47.464H256.782C256.99 47.464 257.118 47.432 257.166 47.368C257.23 47.304 257.262 47.168 257.262 46.96V16.48C257.262 16.144 257.126 15.976 256.854 15.976H253.422Z" fill="black"/>
<path d="M224.678 43.192V29.272C224.678 28.952 224.638 28.736 224.558 28.624C224.478 28.512 224.294 28.456 224.006 28.456H221.222C220.902 28.456 220.678 28.424 220.55 28.36C220.422 28.28 220.358 28.08 220.358 27.76V26.368C220.358 26 220.406 25.76 220.502 25.648C220.614 25.536 220.854 25.48 221.222 25.48H228.878C229.246 25.48 229.486 25.52 229.598 25.6C229.726 25.68 229.79 25.896 229.79 26.248V42.64C229.79 44.336 230.126 45.696 230.798 46.72C231.486 47.744 232.558 48.256 234.014 48.256C235.454 48.256 236.71 47.84 237.782 47.008C238.87 46.16 239.718 45.04 240.326 43.648C240.934 42.24 241.238 40.712 241.238 39.064V29.296C241.238 28.912 241.158 28.68 240.998 28.6C240.854 28.504 240.606 28.456 240.254 28.456H237.758C237.518 28.456 237.334 28.432 237.206 28.384C237.094 28.32 237.038 28.176 237.038 27.952V26.2C237.038 25.928 237.07 25.744 237.134 25.648C237.214 25.536 237.39 25.48 237.662 25.48H245.75C246.022 25.48 246.19 25.536 246.254 25.648C246.318 25.744 246.35 25.936 246.35 26.224V46.624C246.35 46.992 246.398 47.224 246.494 47.32C246.59 47.416 246.83 47.464 247.214 47.464H249.878C250.118 47.464 250.31 47.504 250.454 47.584C250.598 47.648 250.67 47.808 250.67 48.064V49.624C250.67 49.944 250.638 50.16 250.574 50.272C250.51 50.384 250.318 50.44 249.998 50.44H242.198C241.83 50.44 241.598 50.384 241.502 50.272C241.406 50.144 241.358 49.888 241.358 49.504V46.792C241.358 46.6 241.302 46.464 241.19 46.384C241.078 46.288 240.926 46.392 240.734 46.696C239.982 47.96 238.958 48.992 237.662 49.792C236.366 50.592 234.67 50.992 232.574 50.992C230.574 50.992 228.998 50.696 227.846 50.104C226.694 49.512 225.878 48.64 225.398 47.488C224.918 46.336 224.678 44.904 224.678 43.192Z" fill="black"/>
<path d="M190.066 18.64V28.912C190.066 29.52 190.139 29.904 190.283 30.064C190.427 30.208 190.811 30.28 191.435 30.28H207.106C207.73 30.28 208.099 30.184 208.211 29.992C208.323 29.8 208.379 29.384 208.379 28.744V18.808C208.379 18.312 208.331 17.992 208.235 17.848C208.139 17.688 207.843 17.608 207.347 17.608H203.65C203.282 17.608 203.043 17.536 202.931 17.392C202.819 17.232 202.763 16.984 202.763 16.648V15.52C202.763 15.056 202.819 14.76 202.931 14.632C203.059 14.504 203.347 14.44 203.795 14.44H218.146C218.53 14.44 218.794 14.496 218.938 14.608C219.082 14.704 219.155 14.968 219.155 15.4V16.744C219.155 17.112 219.091 17.352 218.963 17.464C218.835 17.56 218.579 17.608 218.195 17.608H215.171C214.643 17.608 214.291 17.672 214.115 17.8C213.955 17.912 213.875 18.224 213.875 18.736V46.384C213.875 46.736 213.931 46.976 214.043 47.104C214.171 47.216 214.418 47.272 214.786 47.272H218.195C218.547 47.272 218.794 47.32 218.938 47.416C219.082 47.496 219.155 47.728 219.155 48.112V49.264C219.155 49.808 219.067 50.144 218.891 50.272C218.731 50.384 218.387 50.44 217.859 50.44H203.842C203.378 50.44 203.082 50.376 202.954 50.248C202.826 50.104 202.763 49.784 202.763 49.288V48.16C202.763 47.808 202.802 47.576 202.882 47.464C202.979 47.336 203.195 47.272 203.531 47.272H207.323C207.787 47.272 208.075 47.192 208.187 47.032C208.315 46.856 208.379 46.536 208.379 46.072V34.552C208.379 34.04 208.299 33.72 208.139 33.592C207.995 33.464 207.683 33.4 207.202 33.4H191.195C190.715 33.4 190.402 33.456 190.258 33.568C190.13 33.68 190.066 33.968 190.066 34.432V46.24C190.066 46.624 190.115 46.896 190.211 47.056C190.323 47.2 190.587 47.272 191.003 47.272H194.819C195.171 47.272 195.403 47.32 195.515 47.416C195.627 47.512 195.683 47.744 195.683 48.112V49.192C195.683 49.752 195.603 50.104 195.443 50.248C195.283 50.376 194.93 50.44 194.386 50.44H180.346C179.898 50.44 179.61 50.384 179.482 50.272C179.354 50.144 179.29 49.848 179.29 49.384V48.352C179.29 47.904 179.347 47.616 179.459 47.488C179.571 47.344 179.842 47.272 180.274 47.272H183.491C183.907 47.272 184.186 47.232 184.33 47.152C184.49 47.056 184.571 46.8 184.571 46.384V18.568C184.571 18.168 184.498 17.912 184.354 17.8C184.226 17.672 183.963 17.608 183.562 17.608H180.227C179.795 17.608 179.531 17.536 179.435 17.392C179.339 17.232 179.29 16.92 179.29 16.456V15.424C179.29 15.008 179.371 14.744 179.531 14.632C179.691 14.504 179.962 14.44 180.346 14.44H194.578C194.962 14.44 195.243 14.488 195.419 14.584C195.595 14.68 195.683 14.928 195.683 15.328V16.672C195.683 17.072 195.627 17.328 195.515 17.44C195.403 17.552 195.155 17.608 194.771 17.608H191.003C190.603 17.608 190.346 17.672 190.234 17.8C190.122 17.928 190.066 18.208 190.066 18.64Z" fill="black"/>
<path d="M153.16 30.76H160.384C161.552 30.76 162.656 30.52 163.696 30.04C164.736 29.56 165.576 28.84 166.216 27.88C166.872 26.904 167.2 25.68 167.2 24.208C167.2 22.736 166.872 21.512 166.216 20.536C165.576 19.56 164.736 18.832 163.696 18.352C162.656 17.856 161.552 17.608 160.384 17.608H152.92C152.44 17.608 152.136 17.672 152.008 17.8C151.88 17.912 151.816 18.224 151.816 18.736V29.584C151.816 30.144 151.904 30.48 152.08 30.592C152.272 30.704 152.632 30.76 153.16 30.76ZM175.264 50.44H172.12C170.568 50.44 169.376 50.144 168.544 49.552C167.728 48.96 167.136 48.184 166.768 47.224C166.4 46.248 166.152 45.184 166.024 44.032C165.896 42.864 165.768 41.704 165.64 40.552C165.513 39.384 165.264 38.32 164.896 37.36C164.528 36.384 163.92 35.6 163.072 35.008C162.24 34.416 161.04 34.12 159.472 34.12H153.064C152.536 34.12 152.192 34.168 152.032 34.264C151.888 34.36 151.816 34.672 151.816 35.2V46.24C151.816 46.64 151.872 46.912 151.984 47.056C152.096 47.2 152.36 47.272 152.776 47.272H156.232C156.616 47.272 156.856 47.328 156.952 47.44C157.048 47.552 157.096 47.8 157.096 48.184V49.384C157.096 49.864 157 50.16 156.808 50.272C156.632 50.384 156.312 50.44 155.848 50.44H141.928C141.528 50.44 141.28 50.384 141.184 50.272C141.088 50.144 141.04 49.88 141.04 49.48V48.352C141.04 47.872 141.096 47.576 141.208 47.464C141.336 47.336 141.64 47.272 142.12 47.272H145.168C145.664 47.272 145.976 47.2 146.104 47.056C146.248 46.912 146.32 46.608 146.32 46.144V18.568C146.32 18.216 146.28 17.968 146.2 17.824C146.12 17.68 145.896 17.608 145.528 17.608H141.856C141.584 17.608 141.376 17.552 141.232 17.44C141.104 17.312 141.04 17.104 141.04 16.816V15.328C141.04 14.976 141.08 14.744 141.16 14.632C141.256 14.504 141.472 14.44 141.808 14.44H160.384C163.376 14.44 165.792 14.864 167.632 15.712C169.472 16.544 170.817 17.688 171.665 19.144C172.513 20.6 172.936 22.24 172.936 24.064C172.936 25.984 172.496 27.632 171.616 29.008C170.752 30.384 169.264 31.424 167.153 32.128C166.736 32.256 166.504 32.432 166.456 32.656C166.408 32.88 166.576 33.08 166.96 33.256C168.192 33.832 169.12 34.576 169.744 35.488C170.368 36.4 170.8 37.384 171.04 38.44C171.28 39.496 171.416 40.544 171.448 41.584C171.496 42.608 171.552 43.552 171.616 44.416C171.696 45.28 171.889 45.976 172.193 46.504C172.497 47.016 173.024 47.272 173.777 47.272H175.24C175.592 47.272 175.832 47.312 175.96 47.392C176.104 47.456 176.176 47.68 176.176 48.064V49.552C176.176 49.936 176.112 50.184 175.985 50.296C175.872 50.392 175.632 50.44 175.264 50.44Z" fill="black"/>
<path d="M108.504 18.64V28.912C108.504 29.52 108.576 29.904 108.72 30.064C108.864 30.208 109.248 30.28 109.872 30.28H125.544C126.168 30.28 126.536 30.184 126.648 29.992C126.76 29.8 126.816 29.384 126.816 28.744V18.808C126.816 18.312 126.768 17.992 126.672 17.848C126.576 17.688 126.28 17.608 125.784 17.608H122.088C121.72 17.608 121.48 17.536 121.368 17.392C121.256 17.232 121.2 16.984 121.2 16.648V15.52C121.2 15.056 121.256 14.76 121.368 14.632C121.496 14.504 121.784 14.44 122.232 14.44H136.584C136.968 14.44 137.232 14.496 137.376 14.608C137.52 14.704 137.592 14.968 137.592 15.4V16.744C137.592 17.112 137.528 17.352 137.4 17.464C137.272 17.56 137.016 17.608 136.632 17.608H133.608C133.08 17.608 132.728 17.672 132.552 17.8C132.392 17.912 132.312 18.224 132.312 18.736V46.384C132.312 46.736 132.368 46.976 132.48 47.104C132.608 47.216 132.856 47.272 133.224 47.272H136.632C136.984 47.272 137.232 47.32 137.376 47.416C137.52 47.496 137.592 47.728 137.592 48.112V49.264C137.592 49.808 137.504 50.144 137.328 50.272C137.168 50.384 136.824 50.44 136.296 50.44H122.28C121.816 50.44 121.52 50.376 121.392 50.248C121.264 50.104 121.2 49.784 121.2 49.288V48.16C121.2 47.808 121.24 47.576 121.32 47.464C121.416 47.336 121.632 47.272 121.968 47.272H125.76C126.224 47.272 126.512 47.192 126.624 47.032C126.752 46.856 126.816 46.536 126.816 46.072V34.552C126.816 34.04 126.736 33.72 126.576 33.592C126.432 33.464 126.12 33.4 125.64 33.4H109.632C109.152 33.4 108.84 33.456 108.696 33.568C108.568 33.68 108.504 33.968 108.504 34.432V46.24C108.504 46.624 108.552 46.896 108.648 47.056C108.76 47.2 109.024 47.272 109.44 47.272H113.256C113.608 47.272 113.84 47.32 113.952 47.416C114.064 47.512 114.12 47.744 114.12 48.112V49.192C114.12 49.752 114.04 50.104 113.88 50.248C113.72 50.376 113.368 50.44 112.824 50.44H98.784C98.336 50.44 98.048 50.384 97.92 50.272C97.792 50.144 97.728 49.848 97.728 49.384V48.352C97.728 47.904 97.784 47.616 97.896 47.488C98.008 47.344 98.28 47.272 98.712 47.272H101.928C102.344 47.272 102.624 47.232 102.768 47.152C102.928 47.056 103.008 46.8 103.008 46.384V18.568C103.008 18.168 102.936 17.912 102.792 17.8C102.664 17.672 102.4 17.608 102 17.608H98.664C98.232 17.608 97.968 17.536 97.872 17.392C97.776 17.232 97.728 16.92 97.728 16.456V15.424C97.728 15.008 97.808 14.744 97.968 14.632C98.128 14.504 98.4 14.44 98.784 14.44H113.016C113.4 14.44 113.68 14.488 113.856 14.584C114.032 14.68 114.12 14.928 114.12 15.328V16.672C114.12 17.072 114.064 17.328 113.952 17.44C113.84 17.552 113.592 17.608 113.208 17.608H109.44C109.04 17.608 108.784 17.672 108.672 17.8C108.56 17.928 108.504 18.208 108.504 18.64Z" fill="black"/>
<path d="M254.528 67.44V59.04H255.26L261.056 66.336H260.672V59.04H261.548V67.44H260.816L255.032 60.144H255.416V67.44H254.528Z" fill="black"/>
<path d="M248.134 67.512C247.502 67.512 246.914 67.408 246.37 67.2C245.834 66.984 245.366 66.684 244.966 66.3C244.574 65.908 244.266 65.456 244.042 64.944C243.826 64.424 243.718 63.856 243.718 63.24C243.718 62.624 243.826 62.06 244.042 61.548C244.266 61.028 244.574 60.576 244.966 60.192C245.366 59.8 245.834 59.5 246.37 59.292C246.906 59.076 247.494 58.968 248.134 58.968C248.766 58.968 249.35 59.076 249.886 59.292C250.422 59.5 250.886 59.796 251.278 60.18C251.678 60.564 251.986 61.016 252.202 61.536C252.426 62.056 252.538 62.624 252.538 63.24C252.538 63.856 252.426 64.424 252.202 64.944C251.986 65.464 251.678 65.916 251.278 66.3C250.886 66.684 250.422 66.984 249.886 67.2C249.35 67.408 248.766 67.512 248.134 67.512ZM248.134 66.72C248.638 66.72 249.102 66.636 249.526 66.468C249.958 66.292 250.33 66.048 250.642 65.736C250.962 65.416 251.21 65.048 251.386 64.632C251.562 64.208 251.65 63.744 251.65 63.24C251.65 62.736 251.562 62.276 251.386 61.86C251.21 61.436 250.962 61.068 250.642 60.756C250.33 60.436 249.958 60.192 249.526 60.024C249.102 59.848 248.638 59.76 248.134 59.76C247.63 59.76 247.162 59.848 246.73 60.024C246.298 60.192 245.922 60.436 245.602 60.756C245.29 61.068 245.042 61.436 244.858 61.86C244.682 62.276 244.594 62.736 244.594 63.24C244.594 63.736 244.682 64.196 244.858 64.62C245.042 65.044 245.29 65.416 245.602 65.736C245.922 66.048 246.298 66.292 246.73 66.468C247.162 66.636 247.63 66.72 248.134 66.72Z" fill="black"/>
<path d="M240.841 67.44V59.04H241.729V67.44H240.841Z" fill="black"/>
<path d="M235.582 67.44V59.808H232.63V59.04H239.422V59.808H236.47V67.44H235.582Z" fill="black"/>
<path d="M224.426 67.44L228.266 59.04H229.142L232.982 67.44H232.046L228.518 59.556H228.878L225.35 67.44H224.426ZM225.938 65.196L226.202 64.476H231.086L231.35 65.196H225.938Z" fill="black"/>
<path d="M217.098 67.44V59.04H220.242C220.954 59.04 221.566 59.156 222.078 59.388C222.59 59.612 222.982 59.94 223.254 60.372C223.534 60.796 223.674 61.312 223.674 61.92C223.674 62.512 223.534 63.024 223.254 63.456C222.982 63.88 222.59 64.208 222.078 64.44C221.566 64.664 220.954 64.776 220.242 64.776H217.59L217.986 64.368V67.44H217.098ZM222.834 67.44L220.674 64.392H221.634L223.806 67.44H222.834ZM217.986 64.44L217.59 64.02H220.218C221.058 64.02 221.694 63.836 222.126 63.468C222.566 63.1 222.786 62.584 222.786 61.92C222.786 61.248 222.566 60.728 222.126 60.36C221.694 59.992 221.058 59.808 220.218 59.808H217.59L217.986 59.388V64.44Z" fill="black"/>
<path d="M211.84 67.44V59.808H208.888V59.04H215.68V59.808H212.728V67.44H211.84Z" fill="black"/>
<path d="M205.258 67.512C204.634 67.512 204.034 67.412 203.458 67.212C202.89 67.004 202.45 66.74 202.138 66.42L202.486 65.736C202.782 66.024 203.178 66.268 203.674 66.468C204.178 66.66 204.706 66.756 205.258 66.756C205.786 66.756 206.214 66.692 206.542 66.564C206.878 66.428 207.122 66.248 207.274 66.024C207.434 65.8 207.514 65.552 207.514 65.28C207.514 64.952 207.418 64.688 207.226 64.488C207.042 64.288 206.798 64.132 206.494 64.02C206.19 63.9 205.854 63.796 205.486 63.708C205.118 63.62 204.75 63.528 204.382 63.432C204.014 63.328 203.674 63.192 203.362 63.024C203.058 62.856 202.81 62.636 202.618 62.364C202.434 62.084 202.342 61.72 202.342 61.272C202.342 60.856 202.45 60.476 202.666 60.132C202.89 59.78 203.23 59.5 203.686 59.292C204.142 59.076 204.726 58.968 205.438 58.968C205.91 58.968 206.378 59.036 206.842 59.172C207.306 59.3 207.706 59.48 208.042 59.712L207.742 60.42C207.382 60.18 206.998 60.004 206.59 59.892C206.19 59.78 205.802 59.724 205.426 59.724C204.922 59.724 204.506 59.792 204.178 59.928C203.85 60.064 203.606 60.248 203.446 60.48C203.294 60.704 203.218 60.96 203.218 61.248C203.218 61.576 203.31 61.84 203.494 62.04C203.686 62.24 203.934 62.396 204.238 62.508C204.55 62.62 204.89 62.72 205.258 62.808C205.626 62.896 205.99 62.992 206.35 63.096C206.718 63.2 207.054 63.336 207.358 63.504C207.67 63.664 207.918 63.88 208.102 64.152C208.294 64.424 208.39 64.78 208.39 65.22C208.39 65.628 208.278 66.008 208.054 66.36C207.83 66.704 207.486 66.984 207.022 67.2C206.566 67.408 205.978 67.512 205.258 67.512Z" fill="black"/>
<path d="M199.321 67.44V59.04H200.209V67.44H199.321Z" fill="black"/>
<path d="M189.559 67.44V59.04H190.291L196.087 66.336H195.703V59.04H196.579V67.44H195.847L190.063 60.144H190.447V67.44H189.559Z" fill="black"/>
<path d="M185.938 67.44V59.04H186.826V67.44H185.938Z" fill="black"/>
<path d="M174.477 67.44V59.04H175.209L179.049 65.592H178.665L182.469 59.04H183.201V67.44H182.349V60.372H182.553L179.049 66.372H178.629L175.101 60.372H175.329V67.44H174.477Z" fill="black"/>
<path d="M164.563 67.44V59.04H167.983C168.879 59.04 169.663 59.22 170.335 59.58C171.015 59.932 171.543 60.424 171.919 61.056C172.295 61.688 172.483 62.416 172.483 63.24C172.483 64.064 172.295 64.792 171.919 65.424C171.543 66.056 171.015 66.552 170.335 66.912C169.663 67.264 168.879 67.44 167.983 67.44H164.563ZM165.451 66.672H167.935C168.679 66.672 169.323 66.528 169.867 66.24C170.419 65.944 170.847 65.54 171.151 65.028C171.455 64.508 171.607 63.912 171.607 63.24C171.607 62.56 171.455 61.964 171.151 61.452C170.847 60.94 170.419 60.54 169.867 60.252C169.323 59.956 168.679 59.808 167.935 59.808H165.451V66.672Z" fill="black"/>
<path d="M154.618 67.44L158.458 59.04H159.334L163.174 67.44H162.238L158.71 59.556H159.07L155.542 67.44H154.618ZM156.13 65.196L156.394 64.476H161.278L161.542 65.196H156.13Z" fill="black"/>
<path d="M147.208 67.44V64.32L147.412 64.872L143.848 59.04H144.796L147.928 64.164H147.424L150.556 59.04H151.444L147.88 64.872L148.084 64.32V67.44H147.208Z" fill="black"/>
<path d="M140.313 67.512C139.689 67.512 139.089 67.412 138.513 67.212C137.945 67.004 137.505 66.74 137.193 66.42L137.541 65.736C137.837 66.024 138.233 66.268 138.729 66.468C139.233 66.66 139.761 66.756 140.313 66.756C140.841 66.756 141.269 66.692 141.597 66.564C141.933 66.428 142.177 66.248 142.329 66.024C142.489 65.8 142.569 65.552 142.569 65.28C142.569 64.952 142.473 64.688 142.281 64.488C142.097 64.288 141.853 64.132 141.549 64.02C141.245 63.9 140.909 63.796 140.541 63.708C140.173 63.62 139.805 63.528 139.437 63.432C139.069 63.328 138.729 63.192 138.417 63.024C138.113 62.856 137.865 62.636 137.673 62.364C137.489 62.084 137.397 61.72 137.397 61.272C137.397 60.856 137.505 60.476 137.721 60.132C137.945 59.78 138.285 59.5 138.741 59.292C139.197 59.076 139.781 58.968 140.493 58.968C140.965 58.968 141.433 59.036 141.897 59.172C142.361 59.3 142.761 59.48 143.097 59.712L142.797 60.42C142.437 60.18 142.053 60.004 141.645 59.892C141.245 59.78 140.857 59.724 140.481 59.724C139.977 59.724 139.561 59.792 139.233 59.928C138.905 60.064 138.661 60.248 138.501 60.48C138.349 60.704 138.273 60.96 138.273 61.248C138.273 61.576 138.365 61.84 138.549 62.04C138.741 62.24 138.989 62.396 139.293 62.508C139.605 62.62 139.945 62.72 140.313 62.808C140.681 62.896 141.045 62.992 141.405 63.096C141.773 63.2 142.109 63.336 142.413 63.504C142.725 63.664 142.973 63.88 143.157 64.152C143.349 64.424 143.445 64.78 143.445 65.22C143.445 65.628 143.333 66.008 143.109 66.36C142.885 66.704 142.541 66.984 142.077 67.2C141.621 67.408 141.033 67.512 140.313 67.512Z" fill="black"/>
<path d="M128.051 67.44L131.891 59.04H132.767L136.607 67.44H135.671L132.143 59.556H132.503L128.975 67.44H128.051ZM129.563 65.196L129.827 64.476H134.711L134.975 65.196H129.563Z" fill="black"/>
<path d="M122.16 62.796H126.6V63.552H122.16V62.796ZM122.256 66.672H127.308V67.44H121.368V59.04H127.128V59.808H122.256V66.672Z" fill="black"/>
</svg>
