<svg width="292" height="86" viewBox="0 0 292 86" fill="none" xmlns="http://www.w3.org/2000/svg">
<path d="M25.4782 9.22622e-05C25.4718 0.00114828 25.4649 0.00326548 25.4585 0.00537752C25.4158 0.0127697 25.3757 0.0339221 25.3451 0.0645467L23.8509 1.45283L22.3567 2.84118L20.8625 4.22953C20.8381 4.25265 20.8193 4.28157 20.8082 4.31325L19.5507 7.72502C19.5397 7.75649 19.5363 7.79049 19.5412 7.82344L19.7779 9.84686L20.0146 11.8703L20.1379 12.9042L17.2037 20.8797C14.1904 25.2 12.1201 30.0856 11.1135 35.221L10.3393 30.7458L10.6599 29.707L11.2615 27.7574L11.8532 25.8029C11.8628 25.7722 11.8678 25.7411 11.8628 25.7093L11.2365 22.1252C11.2323 22.0921 11.2213 22.0592 11.202 22.0317L9.97904 20.4021L8.76099 18.7676L7.53802 17.1331C7.49095 17.0673 7.40515 17.0363 7.32597 17.0494C7.29963 17.0536 7.27478 17.06 7.25203 17.074C7.24675 17.0782 7.24146 17.0835 7.23723 17.0888C7.20412 17.1166 7.17937 17.1553 7.16815 17.1971L6.57146 19.1467L5.96984 21.0962L5.37314 23.0409C5.36362 23.0731 5.36204 23.1113 5.36785 23.1443L5.98921 26.7234C5.99556 26.7561 6.00825 26.7907 6.02867 26.817L7.24671 28.4466L8.46475 30.081L9.09103 30.918L10.5458 39.3071C10.4568 40.361 10.4077 41.4231 10.4077 42.4875C10.4077 46.7763 11.1291 50.8973 12.4493 54.7412L9.53979 51.2606L9.29322 50.1972L8.83953 48.2131L8.37598 46.2242C8.36858 46.1925 8.35652 46.1608 8.33653 46.1355L5.99906 43.344C5.97843 43.3176 5.95061 43.2986 5.92015 43.2848L4.04131 42.4774L2.1674 41.675L0.298421 40.8676C0.200133 40.8233 0.066953 40.8677 0.017335 40.9616C0.0151136 40.9722 0.0139499 40.9743 0.0123632 40.9817C-0.00239269 41.0218 -0.00379973 41.0683 0.00739151 41.1097L0.466006 43.0937L0.91969 45.0827L1.3783 47.0667C1.38613 47.0994 1.4008 47.1301 1.42269 47.1554L3.75522 49.9518C3.77701 49.9771 3.80324 49.9929 3.83413 50.0056L5.70803 50.8131L7.58194 51.6205L8.54355 52.0291L14.0026 58.567C16.2552 63.3403 19.4765 67.5701 23.4165 70.998L19.1213 69.4227L18.3767 68.625L16.986 67.1333L15.5904 65.6416C15.5687 65.6183 15.5415 65.5993 15.5115 65.5877L12.0892 64.3373C12.0581 64.3246 12.024 64.3193 11.9906 64.3225L9.96383 64.5637L7.93705 64.8001L5.91027 65.0364C5.80278 65.047 5.71295 65.1502 5.71795 65.2579C5.719 65.2685 5.72112 65.2706 5.72323 65.278C5.73064 65.3202 5.75179 65.3604 5.78236 65.3912L7.173 66.883L8.56364 68.3747L9.95427 69.8664C9.97744 69.8907 10.0064 69.9097 10.0382 69.9203L13.4556 71.1756C13.4871 71.1862 13.5212 71.1904 13.5542 71.1862L15.5809 70.9499L17.6077 70.7135L18.6433 70.5905L26.6814 73.5394C30.9108 76.4781 35.7695 78.576 41.0119 79.595L36.5145 80.3729L35.469 80.0528L33.5162 79.4571L31.5634 78.8614C31.5327 78.8509 31.5015 78.8466 31.4697 78.8509L27.8797 79.4761C27.8465 79.4761 27.8135 79.4961 27.786 79.5151L26.1488 80.7361L24.5116 81.9521L22.8743 83.1681C22.7864 83.2304 22.7618 83.3629 22.8201 83.4537C22.8243 83.4642 22.8296 83.4643 22.8349 83.4685C22.8628 83.5012 22.9015 83.5265 22.9434 83.5371L24.8962 84.1328L26.8441 84.7335L28.7969 85.3292C28.8291 85.3397 28.8625 85.3408 28.8955 85.3397L32.4855 84.7243C32.5183 84.7138 32.5479 84.7 32.5742 84.68L34.2115 83.464L35.8487 82.248L36.6821 81.6277L45.1146 80.1704C45.7125 80.22 46.3137 80.2526 46.9195 80.2738V80.2981C47.1465 80.2981 47.3739 80.2875 47.6 80.2875C47.8261 80.2875 48.0536 80.2981 48.2806 80.2981V80.2738C48.8864 80.2526 49.4876 80.22 50.0854 80.1704L58.518 81.6277L59.3514 82.248L60.9886 83.464L62.6258 84.68C62.6522 84.7 62.6818 84.718 62.7146 84.7243L66.3046 85.3397C66.3376 85.3503 66.371 85.3397 66.4032 85.3292L68.356 84.7335L70.3039 84.1328L72.2567 83.5371C72.2986 83.5255 72.3373 83.5012 72.3652 83.4685C72.3705 83.4685 72.3758 83.4579 72.38 83.4537C72.4383 83.3629 72.4136 83.2308 72.3257 83.1681L70.6885 81.9521L69.0513 80.7361L67.4141 79.5151C67.3866 79.4961 67.3536 79.4803 67.3204 79.4761L63.7304 78.8509C63.6985 78.8509 63.6673 78.8511 63.6367 78.8614L61.6839 79.4571L59.731 80.0528L58.6856 80.3728L54.1882 79.595C59.4306 78.576 64.2893 76.4781 68.5187 73.5394L76.5568 70.5904L77.5924 70.7135L79.6191 70.9499L81.6459 71.1862C81.6789 71.1862 81.7131 71.1872 81.7445 71.1756L85.1619 69.9202C85.1937 69.9096 85.2226 69.8906 85.2458 69.8663L86.6364 68.3747L88.0271 66.883L89.4177 65.3912C89.4484 65.3606 89.4693 65.3204 89.4768 65.278C89.479 65.2674 89.48 65.2653 89.4821 65.2579C89.4874 65.1502 89.3973 65.0468 89.2898 65.0364L87.263 64.8001L85.2362 64.5637L83.2095 64.3225C83.176 64.3225 83.142 64.3225 83.1109 64.3373L79.6885 65.5877C79.6586 65.5993 79.6314 65.6183 79.6096 65.6416L78.2141 67.1333L76.8234 68.625L76.0788 69.4226L71.7836 70.998C75.7235 67.5701 78.9449 63.3403 81.1975 58.567L86.6565 52.0291L87.6181 51.6203L89.492 50.8131L91.3659 50.0056C91.3968 49.9929 91.4231 49.9771 91.4449 49.9518L93.7774 47.1554C93.7993 47.1301 93.8139 47.0994 93.8218 47.0667L94.2804 45.0827L94.7341 43.0936L95.1927 41.1097C95.2039 41.0685 95.2022 41.022 95.1874 40.9816C95.1864 40.971 95.1842 40.9679 95.1821 40.9615C95.1325 40.8654 94.9993 40.8234 94.901 40.8675L93.0321 41.675L91.1582 42.4774L89.2793 43.2848C89.2489 43.2986 89.221 43.3176 89.2004 43.344L86.863 46.1354C86.843 46.1608 86.8305 46.1924 86.8235 46.2241L86.36 48.2131L85.9063 50.1972L85.6597 51.2606L82.7502 54.7412C84.0704 50.8973 84.7918 46.7762 84.7918 42.4875C84.7918 41.4231 84.7427 40.361 84.6537 39.3071L86.1085 30.918L86.7347 30.081L87.9528 28.4465L89.1708 26.817C89.1912 26.7907 89.204 26.7561 89.2103 26.7234L89.8316 23.1443C89.838 23.1113 89.8359 23.0731 89.8263 23.0409L89.2296 21.0962L88.628 19.1467L88.0313 17.1971C88.0201 17.1554 87.9955 17.1166 87.9623 17.0888C87.958 17.0835 87.9527 17.0782 87.9474 17.074C87.9247 17.0594 87.8998 17.0537 87.8735 17.0494C87.7944 17.0363 87.7085 17.0672 87.6615 17.1331L86.4385 18.7676L85.2204 20.4021L83.9974 22.0317C83.9782 22.0592 83.9675 22.0921 83.963 22.1252L83.3367 25.7093C83.3325 25.7411 83.3368 25.7722 83.3462 25.8029L83.938 27.7574L84.5396 29.7069L84.8601 30.7458L84.0859 35.2209C83.0793 30.0856 81.009 25.2 77.9957 20.8797L75.0616 12.9042L75.1848 11.8703L75.4215 9.84686L75.6582 7.82344C75.6625 7.79049 75.6593 7.75638 75.6487 7.72502L74.3912 4.31325C74.3801 4.28157 74.3613 4.25265 74.337 4.22953L72.8428 2.84118L71.3486 1.45283L69.8544 0.0645467C69.8238 0.0339221 69.7836 0.0130042 69.741 0.00550643C69.7346 0.00339439 69.7278 0.00233321 69.7213 0.000221171C69.6134 -0.00505893 69.5098 0.0849286 69.4994 0.192231L69.2627 2.21565L69.026 4.23907L68.7843 6.26248C68.7812 6.29585 68.7864 6.32986 68.7991 6.36091L70.0517 9.77757C70.0635 9.80746 70.0823 9.83458 70.106 9.85633L71.6002 11.2496L73.0943 12.6379L73.8932 13.3813L75.9348 18.9347L75.6291 19.1858L65.4409 10.7031L65.293 10.3586L64.4842 8.48771L63.6755 6.61692L60.8794 4.28824L58.8921 3.83042L56.8998 3.37254L56.5399 3.28881L56.4856 3.24447L56.4609 3.27399L54.9125 2.91459L55.5388 4.37681L55.4747 4.45557L55.6325 4.58357L55.7164 4.78545L56.5251 6.6612L57.3338 8.53199L60.1299 10.8606L62.1222 11.3185L64.1095 11.7764L64.3265 11.8255L74.6379 20.4116C75.8558 21.9357 76.9409 23.5463 77.8827 25.2314L69.7164 21.4602L69.6079 21.3224L68.3455 19.7223L67.1127 18.1617L63.9024 16.6749L61.9101 16.7487L59.8685 16.8177L58.2461 16.8767L59.2521 18.1468L60.5195 19.7469L61.7474 21.3076L64.9626 22.7943L66.9549 22.7205L68.9915 22.6516L69.2775 22.6421L78.8345 27.0581C81.151 31.8366 82.3752 37.1087 82.3752 42.4874C82.3752 42.6534 82.372 42.8191 82.3699 42.9846L77.1969 35.6589L77.1723 35.4866L76.8764 33.4681L76.5904 31.5038L74.5587 28.6139L72.7932 27.6834L70.9933 26.7233L69.5583 25.9652L69.79 27.5652L70.0909 29.5838L70.3719 31.5481L72.4086 34.4429L74.174 35.3734L75.969 36.3285L76.2254 36.4614L82.2811 45.0475C81.8757 50.7172 80.1376 56.0183 77.3745 60.6342L76.5608 51.6888L76.6249 51.5262L77.3843 49.6309L78.1191 47.7847L77.8084 44.2696L76.7482 42.5809L75.6633 40.8529L74.8052 39.4793L74.2036 40.9809L73.4491 42.8812L72.7094 44.7226L73.0299 48.2426L74.0902 49.9313L75.1652 51.6544L75.3181 51.9005L76.2649 62.3672C73.1683 66.9165 69.0365 70.7049 64.2078 73.3999L67.9852 65.2521L68.1232 65.1438L69.7259 63.8835L71.2892 62.6528L72.7784 59.4477L72.7045 57.4588L72.6354 55.4206L72.5763 53.8008L71.304 54.8051L69.7013 56.0704L68.1381 57.2963L66.6488 60.5062L66.7228 62.4952L66.7918 64.5284L66.8014 64.814L62.3779 74.3552C58.7765 76.0975 54.8337 77.251 50.6759 77.6881L48.6885 76.2898L53.7629 72.7206L53.9404 72.6964L55.9573 72.4058L57.9299 72.1203L60.8246 70.087L61.7566 68.3245L62.7182 66.5276L63.4776 65.0949L61.87 65.3312L59.8482 65.6266L57.8806 65.9073L54.9859 67.9405L54.0538 69.7031L53.0922 71.4951L52.9591 71.7511L47.5987 75.5223L42.2383 71.7511L42.1052 71.4951L41.1436 69.7031L40.2116 67.9405L37.3169 65.9073L35.3493 65.6266L33.3274 65.3312L31.7198 65.0949L32.4792 66.5276L33.4408 68.3245L34.3729 70.087L37.2676 72.1203L39.2401 72.4058L41.257 72.6964L41.4345 72.7206L46.5089 76.2898L44.5215 77.6881C40.3637 77.251 36.4209 76.0975 32.8195 74.3552L28.3961 64.814L28.4056 64.5284L28.4747 62.4952L28.5486 60.5062L27.0593 57.2963L25.4961 56.0704L23.8934 54.8051L22.6211 53.8008L22.562 55.4206L22.4929 57.4588L22.419 59.4477L23.9082 62.6528L25.4715 63.8835L27.0742 65.1438L27.2122 65.2521L30.9897 73.3999C26.1609 70.7049 22.0291 66.9165 18.9325 62.3672L19.8793 51.9005L20.0322 51.6544L21.1073 49.9313L22.1675 48.2426L22.488 44.7226L21.7483 42.8812L20.9938 40.9809L20.3922 39.4793L19.5342 40.8529L18.4493 42.5809L17.389 44.2696L17.0783 47.7847L17.8131 49.6309L18.5725 51.5262L18.6366 51.6888L17.823 60.6342C15.0598 56.0183 13.3217 50.7172 12.9163 45.0475L18.972 36.4614L19.2284 36.3285L21.0234 35.3734L22.7888 34.4429L24.8255 31.5481L25.1066 29.5838L25.4074 27.5652L25.6392 25.9652L24.2041 26.7233L22.4042 27.6834L20.6388 28.6139L18.6071 31.5038L18.321 33.4681L18.0252 35.4866L18.0005 35.6589L12.8275 42.9846C12.8254 42.8191 12.8222 42.6534 12.8222 42.4874C12.8222 37.1087 14.0464 31.8366 16.363 27.0581L25.9199 22.6421L26.2059 22.6516L28.2425 22.7205L30.2348 22.7943L33.45 21.3076L34.6779 19.7469L35.9453 18.1468L36.9513 16.8767L35.3289 16.8177L33.2873 16.7487L31.295 16.6749L28.0847 18.1617L26.8519 19.7223L25.5895 21.3224L25.481 21.4602L17.3147 25.2314C18.2565 23.5463 19.3417 21.9357 20.5595 20.4116L30.8709 11.8255L31.0879 11.7764L33.0753 11.3185L35.0675 10.8606L37.8636 8.53199L38.6723 6.6612L39.4811 4.78545L39.565 4.58357L39.7227 4.45557L39.6586 4.37681L40.2849 2.91459L38.7365 3.27399L38.7118 3.24447L38.6576 3.28881L38.2976 3.37254L36.3053 3.83042L34.318 4.28824L31.5219 6.61692L30.7132 8.48771L29.9044 10.3585L29.7565 10.7031L19.5684 19.1858L19.2626 18.9347L21.3042 13.3813L22.1031 12.6379L23.5973 11.2496L25.0915 9.85633C25.1151 9.83458 25.1339 9.80746 25.1457 9.77757L26.3983 6.36091C26.4109 6.32986 26.416 6.29585 26.4131 6.26248L26.1714 4.23907L25.9347 2.21565L25.698 0.192231C25.6875 0.084918 25.584 -0.00476325 25.4761 0.000221171L25.4782 9.22622e-05ZM47.6001 77.0576L48.7048 77.8354C48.3379 77.8534 47.9699 77.8682 47.6001 77.8745C47.231 77.8639 46.8618 77.8534 46.4955 77.8354L47.6001 77.0576Z" fill="#111111"/>
<path d="M116.504 31.2V41.472C116.504 42.08 116.576 42.464 116.72 42.624C116.864 42.768 117.248 42.84 117.872 42.84H133.544C134.168 42.84 134.536 42.744 134.648 42.552C134.76 42.36 134.816 41.944 134.816 41.304V31.368C134.816 30.872 134.768 30.552 134.672 30.408C134.576 30.248 134.28 30.168 133.784 30.168H130.088C129.72 30.168 129.48 30.096 129.368 29.952C129.256 29.792 129.2 29.544 129.2 29.208V28.08C129.2 27.616 129.256 27.32 129.368 27.192C129.496 27.064 129.784 27 130.232 27H144.584C144.968 27 145.232 27.056 145.376 27.168C145.52 27.264 145.592 27.528 145.592 27.96V29.304C145.592 29.672 145.528 29.912 145.4 30.024C145.272 30.12 145.016 30.168 144.632 30.168H141.608C141.08 30.168 140.728 30.232 140.552 30.36C140.392 30.472 140.312 30.784 140.312 31.296V58.944C140.312 59.296 140.368 59.536 140.48 59.664C140.608 59.776 140.856 59.832 141.224 59.832H144.632C144.984 59.832 145.232 59.88 145.376 59.976C145.52 60.056 145.592 60.288 145.592 60.672V61.824C145.592 62.368 145.504 62.704 145.328 62.832C145.168 62.944 144.824 63 144.296 63H130.28C129.816 63 129.52 62.936 129.392 62.808C129.264 62.664 129.2 62.344 129.2 61.848V60.72C129.2 60.368 129.24 60.136 129.32 60.024C129.416 59.896 129.632 59.832 129.968 59.832H133.76C134.224 59.832 134.512 59.752 134.624 59.592C134.752 59.416 134.816 59.096 134.816 58.632V47.112C134.816 46.6 134.736 46.28 134.576 46.152C134.432 46.024 134.12 45.96 133.64 45.96H117.632C117.152 45.96 116.84 46.016 116.696 46.128C116.568 46.24 116.504 46.528 116.504 46.992V58.8C116.504 59.184 116.552 59.456 116.648 59.616C116.76 59.76 117.024 59.832 117.44 59.832H121.256C121.608 59.832 121.84 59.88 121.952 59.976C122.064 60.072 122.12 60.304 122.12 60.672V61.752C122.12 62.312 122.04 62.664 121.88 62.808C121.72 62.936 121.368 63 120.824 63H106.784C106.336 63 106.048 62.944 105.92 62.832C105.792 62.704 105.728 62.408 105.728 61.944V60.912C105.728 60.464 105.784 60.176 105.896 60.048C106.008 59.904 106.28 59.832 106.712 59.832H109.928C110.344 59.832 110.624 59.792 110.768 59.712C110.928 59.616 111.008 59.36 111.008 58.944V31.128C111.008 30.728 110.936 30.472 110.792 30.36C110.664 30.232 110.4 30.168 110 30.168H106.664C106.232 30.168 105.968 30.096 105.872 29.952C105.776 29.792 105.728 29.48 105.728 29.016V27.984C105.728 27.568 105.808 27.304 105.968 27.192C106.128 27.064 106.4 27 106.784 27H121.016C121.4 27 121.68 27.048 121.856 27.144C122.032 27.24 122.12 27.488 122.12 27.888V29.232C122.12 29.632 122.064 29.888 121.952 30C121.84 30.112 121.592 30.168 121.208 30.168H117.44C117.04 30.168 116.784 30.232 116.672 30.36C116.56 30.488 116.504 30.768 116.504 31.2ZM161.161 43.32H168.385C169.553 43.32 170.657 43.08 171.697 42.6C172.737 42.12 173.577 41.4 174.217 40.44C174.873 39.464 175.201 38.24 175.201 36.768C175.201 35.296 174.873 34.072 174.217 33.096C173.577 32.12 172.737 31.392 171.697 30.912C170.657 30.416 169.553 30.168 168.385 30.168H160.921C160.441 30.168 160.137 30.232 160.009 30.36C159.881 30.472 159.817 30.784 159.817 31.296V42.144C159.817 42.704 159.905 43.04 160.081 43.152C160.273 43.264 160.633 43.32 161.161 43.32ZM183.265 63H180.121C178.569 63 177.377 62.704 176.545 62.112C175.729 61.52 175.137 60.744 174.769 59.784C174.401 58.808 174.153 57.744 174.025 56.592C173.897 55.424 173.769 54.264 173.641 53.112C173.513 51.944 173.265 50.88 172.897 49.92C172.529 48.944 171.921 48.16 171.073 47.568C170.241 46.976 169.041 46.68 167.473 46.68H161.065C160.537 46.68 160.193 46.728 160.033 46.824C159.889 46.92 159.817 47.232 159.817 47.76V58.8C159.817 59.2 159.873 59.472 159.984 59.616C160.097 59.76 160.361 59.832 160.777 59.832H164.233C164.617 59.832 164.857 59.888 164.953 60C165.049 60.112 165.097 60.36 165.097 60.744V61.944C165.097 62.424 165.001 62.72 164.809 62.832C164.633 62.944 164.313 63 163.849 63H149.929C149.529 63 149.281 62.944 149.185 62.832C149.089 62.704 149.041 62.44 149.041 62.04V60.912C149.041 60.432 149.097 60.136 149.209 60.024C149.337 59.896 149.641 59.832 150.121 59.832H153.169C153.665 59.832 153.977 59.76 154.105 59.616C154.249 59.472 154.321 59.168 154.321 58.704V31.128C154.321 30.776 154.281 30.528 154.201 30.384C154.121 30.24 153.897 30.168 153.529 30.168H149.857C149.585 30.168 149.377 30.112 149.233 30C149.105 29.872 149.041 29.664 149.041 29.376V27.888C149.041 27.536 149.081 27.304 149.161 27.192C149.257 27.064 149.473 27 149.809 27H168.385C171.377 27 173.793 27.424 175.633 28.272C177.473 29.104 178.817 30.248 179.665 31.704C180.513 33.16 180.937 34.8 180.937 36.624C180.937 38.544 180.497 40.192 179.617 41.568C178.753 42.944 177.265 43.984 175.153 44.688C174.737 44.816 174.505 44.992 174.457 45.216C174.409 45.44 174.577 45.64 174.961 45.816C176.193 46.392 177.121 47.136 177.745 48.048C178.369 48.96 178.801 49.944 179.041 51C179.281 52.056 179.417 53.104 179.449 54.144C179.497 55.168 179.553 56.112 179.617 56.976C179.697 57.84 179.889 58.536 180.193 59.064C180.497 59.576 181.025 59.832 181.777 59.832H183.241C183.593 59.832 183.833 59.872 183.961 59.952C184.105 60.016 184.177 60.24 184.177 60.624V62.112C184.177 62.496 184.113 62.744 183.985 62.856C183.873 62.952 183.633 63 183.265 63ZM198.067 31.2V41.472C198.067 42.08 198.139 42.464 198.283 42.624C198.427 42.768 198.811 42.84 199.435 42.84H215.107C215.731 42.84 216.099 42.744 216.211 42.552C216.323 42.36 216.379 41.944 216.379 41.304V31.368C216.379 30.872 216.331 30.552 216.235 30.408C216.139 30.248 215.843 30.168 215.347 30.168H211.651C211.283 30.168 211.043 30.096 210.931 29.952C210.819 29.792 210.763 29.544 210.763 29.208V28.08C210.763 27.616 210.819 27.32 210.931 27.192C211.059 27.064 211.347 27 211.795 27H226.147C226.531 27 226.795 27.056 226.939 27.168C227.083 27.264 227.155 27.528 227.155 27.96V29.304C227.155 29.672 227.091 29.912 226.963 30.024C226.835 30.12 226.579 30.168 226.195 30.168H223.171C222.643 30.168 222.291 30.232 222.115 30.36C221.955 30.472 221.875 30.784 221.875 31.296V58.944C221.875 59.296 221.931 59.536 222.043 59.664C222.171 59.776 222.419 59.832 222.787 59.832H226.195C226.547 59.832 226.795 59.88 226.939 59.976C227.083 60.056 227.155 60.288 227.155 60.672V61.824C227.155 62.368 227.067 62.704 226.891 62.832C226.731 62.944 226.387 63 225.859 63H211.843C211.379 63 211.083 62.936 210.955 62.808C210.827 62.664 210.763 62.344 210.763 61.848V60.72C210.763 60.368 210.803 60.136 210.883 60.024C210.979 59.896 211.195 59.832 211.531 59.832H215.323C215.787 59.832 216.075 59.752 216.187 59.592C216.315 59.416 216.379 59.096 216.379 58.632V47.112C216.379 46.6 216.299 46.28 216.139 46.152C215.995 46.024 215.683 45.96 215.203 45.96H199.195C198.715 45.96 198.403 46.016 198.259 46.128C198.131 46.24 198.067 46.528 198.067 46.992V58.8C198.067 59.184 198.115 59.456 198.211 59.616C198.323 59.76 198.587 59.832 199.003 59.832H202.819C203.171 59.832 203.403 59.88 203.515 59.976C203.627 60.072 203.683 60.304 203.683 60.672V61.752C203.683 62.312 203.603 62.664 203.443 62.808C203.283 62.936 202.931 63 202.387 63H188.347C187.899 63 187.611 62.944 187.483 62.832C187.355 62.704 187.291 62.408 187.291 61.944V60.912C187.291 60.464 187.347 60.176 187.459 60.048C187.571 59.904 187.843 59.832 188.275 59.832H191.491C191.907 59.832 192.187 59.792 192.331 59.712C192.491 59.616 192.571 59.36 192.571 58.944V31.128C192.571 30.728 192.499 30.472 192.355 30.36C192.227 30.232 191.963 30.168 191.562 30.168H188.227C187.795 30.168 187.531 30.096 187.435 29.952C187.339 29.792 187.291 29.48 187.291 29.016V27.984C187.291 27.568 187.371 27.304 187.531 27.192C187.691 27.064 187.963 27 188.347 27H202.579C202.963 27 203.243 27.048 203.419 27.144C203.595 27.24 203.683 27.488 203.683 27.888V29.232C203.683 29.632 203.627 29.888 203.515 30C203.403 30.112 203.155 30.168 202.771 30.168H199.003C198.603 30.168 198.347 30.232 198.234 30.36C198.123 30.488 198.067 30.768 198.067 31.2ZM232.678 55.752V41.832C232.678 41.512 232.638 41.296 232.558 41.184C232.478 41.072 232.294 41.016 232.006 41.016H229.222C228.902 41.016 228.678 40.984 228.55 40.92C228.422 40.84 228.358 40.64 228.358 40.32V38.928C228.358 38.56 228.406 38.32 228.502 38.208C228.614 38.096 228.854 38.04 229.222 38.04H236.878C237.246 38.04 237.486 38.08 237.598 38.16C237.726 38.24 237.79 38.456 237.79 38.808V55.2C237.79 56.896 238.126 58.256 238.798 59.28C239.486 60.304 240.558 60.816 242.014 60.816C243.454 60.816 244.71 60.4 245.782 59.568C246.87 58.72 247.718 57.6 248.326 56.208C248.934 54.8 249.238 53.272 249.238 51.624V41.856C249.238 41.472 249.158 41.24 248.998 41.16C248.854 41.064 248.606 41.016 248.254 41.016H245.758C245.518 41.016 245.334 40.992 245.206 40.944C245.094 40.88 245.038 40.736 245.038 40.512V38.76C245.038 38.488 245.07 38.304 245.134 38.208C245.214 38.096 245.39 38.04 245.662 38.04H253.75C254.022 38.04 254.19 38.096 254.254 38.208C254.318 38.304 254.35 38.496 254.35 38.784V59.184C254.35 59.552 254.398 59.784 254.494 59.88C254.59 59.976 254.83 60.024 255.214 60.024H257.878C258.118 60.024 258.31 60.064 258.454 60.144C258.598 60.208 258.67 60.368 258.67 60.624V62.184C258.67 62.504 258.638 62.72 258.574 62.832C258.51 62.944 258.318 63 257.998 63H250.198C249.83 63 249.598 62.944 249.502 62.832C249.406 62.704 249.358 62.448 249.358 62.064V59.352C249.358 59.16 249.302 59.024 249.19 58.944C249.078 58.848 248.926 58.952 248.734 59.256C247.982 60.52 246.958 61.552 245.662 62.352C244.366 63.152 242.67 63.552 240.574 63.552C238.574 63.552 236.998 63.256 235.846 62.664C234.694 62.072 233.878 61.2 233.398 60.048C232.918 58.896 232.678 57.464 232.678 55.752ZM270.398 50.52C270.398 52.296 270.67 53.952 271.214 55.488C271.758 57.008 272.534 58.24 273.542 59.184C274.55 60.112 275.734 60.576 277.094 60.576C278.342 60.576 279.438 60.112 280.382 59.184C281.342 58.24 282.086 57.008 282.614 55.488C283.142 53.952 283.406 52.296 283.406 50.52C283.406 48.744 283.142 47.096 282.614 45.576C282.086 44.04 281.342 42.808 280.382 41.88C279.438 40.936 278.342 40.464 277.094 40.464C275.734 40.464 274.55 40.936 273.542 41.88C272.534 42.808 271.758 44.04 271.214 45.576C270.67 47.096 270.398 48.744 270.398 50.52ZM261.422 28.536C261.23 28.536 261.102 28.496 261.038 28.416C260.974 28.336 260.942 28.2 260.942 28.008V25.968C260.942 25.824 260.966 25.72 261.014 25.656C261.062 25.592 261.158 25.56 261.302 25.56H269.894C270.07 25.56 270.198 25.584 270.278 25.632C270.358 25.68 270.398 25.784 270.398 25.944V41.928C270.398 42.312 270.414 42.536 270.446 42.6C270.478 42.648 270.55 42.576 270.662 42.384C271.478 40.88 272.526 39.696 273.806 38.832C275.086 37.968 276.606 37.536 278.366 37.536C280.286 37.536 282.054 38.048 283.67 39.072C285.286 40.08 286.582 41.56 287.558 43.512C288.534 45.448 289.022 47.784 289.022 50.52C289.022 53.256 288.526 55.6 287.534 57.552C286.558 59.504 285.254 60.992 283.622 62.016C281.99 63.04 280.214 63.552 278.294 63.552C276.598 63.552 275.118 63.16 273.854 62.376C272.606 61.576 271.59 60.448 270.806 58.992C270.646 58.704 270.534 58.592 270.47 58.656C270.422 58.704 270.398 59.016 270.398 59.592V62.136C270.398 62.392 270.35 62.6 270.254 62.76C270.174 62.92 269.998 63 269.726 63H261.446C261.238 63 261.102 62.976 261.038 62.928C260.974 62.88 260.942 62.752 260.942 62.544V60.456C260.942 60.28 260.982 60.168 261.062 60.12C261.158 60.056 261.294 60.024 261.47 60.024H264.782C264.99 60.024 265.118 59.992 265.166 59.928C265.23 59.864 265.262 59.728 265.262 59.52V29.04C265.262 28.704 265.126 28.536 264.854 28.536H261.422Z" fill="black"/>
<path d="M130.16 75.356H134.6V76.112H130.16V75.356ZM130.256 79.232H135.308V80H129.368V71.6H135.128V72.368H130.256V79.232ZM139.711 80.072C139.087 80.072 138.487 79.972 137.911 79.772C137.343 79.564 136.903 79.3 136.591 78.98L136.939 78.296C137.235 78.584 137.631 78.828 138.127 79.028C138.631 79.22 139.159 79.316 139.711 79.316C140.239 79.316 140.667 79.252 140.995 79.124C141.331 78.988 141.575 78.808 141.727 78.584C141.887 78.36 141.967 78.112 141.967 77.84C141.967 77.512 141.871 77.248 141.679 77.048C141.495 76.848 141.251 76.692 140.947 76.58C140.643 76.46 140.307 76.356 139.939 76.268C139.571 76.18 139.203 76.088 138.835 75.992C138.467 75.888 138.127 75.752 137.815 75.584C137.511 75.416 137.263 75.196 137.071 74.924C136.887 74.644 136.795 74.28 136.795 73.832C136.795 73.416 136.903 73.036 137.119 72.692C137.343 72.34 137.683 72.06 138.139 71.852C138.595 71.636 139.179 71.528 139.891 71.528C140.363 71.528 140.831 71.596 141.295 71.732C141.759 71.86 142.159 72.04 142.495 72.272L142.195 72.98C141.835 72.74 141.451 72.564 141.043 72.452C140.643 72.34 140.255 72.284 139.879 72.284C139.375 72.284 138.959 72.352 138.631 72.488C138.303 72.624 138.059 72.808 137.899 73.04C137.747 73.264 137.671 73.52 137.671 73.808C137.671 74.136 137.763 74.4 137.947 74.6C138.139 74.8 138.387 74.956 138.691 75.068C139.003 75.18 139.343 75.28 139.711 75.368C140.079 75.456 140.443 75.552 140.803 75.656C141.171 75.76 141.507 75.896 141.811 76.064C142.123 76.224 142.371 76.44 142.555 76.712C142.747 76.984 142.843 77.34 142.843 77.78C142.843 78.188 142.731 78.568 142.507 78.92C142.283 79.264 141.939 79.544 141.475 79.76C141.019 79.968 140.431 80.072 139.711 80.072ZM143.434 80L147.274 71.6H148.15L151.99 80H151.054L147.526 72.116H147.886L144.358 80H143.434ZM144.946 77.756L145.21 77.036H150.094L150.358 77.756H144.946ZM154.892 80V76.88L155.096 77.432L151.532 71.6H152.48L155.612 76.724H155.108L158.24 71.6H159.128L155.564 77.432L155.768 76.88V80H154.892ZM162.301 80L166.141 71.6H167.017L170.857 80H169.921L166.393 72.116H166.753L163.225 80H162.301ZM163.813 77.756L164.077 77.036H168.961L169.225 77.756H163.813ZM172.247 80V71.6H175.667C176.563 71.6 177.347 71.78 178.019 72.14C178.699 72.492 179.227 72.984 179.603 73.616C179.979 74.248 180.167 74.976 180.167 75.8C180.167 76.624 179.979 77.352 179.603 77.984C179.227 78.616 178.699 79.112 178.019 79.472C177.347 79.824 176.563 80 175.667 80H172.247ZM173.135 79.232H175.619C176.363 79.232 177.007 79.088 177.551 78.8C178.103 78.504 178.531 78.1 178.835 77.588C179.139 77.068 179.291 76.472 179.291 75.8C179.291 75.12 179.139 74.524 178.835 74.012C178.531 73.5 178.103 73.1 177.551 72.812C177.007 72.516 176.363 72.368 175.619 72.368H173.135V79.232ZM182.161 80V71.6H182.893L186.733 78.152H186.349L190.153 71.6H190.885V80H190.033V72.932H190.237L186.733 78.932H186.313L182.785 72.932H183.013V80H182.161ZM193.622 80V71.6H194.51V80H193.622ZM197.243 80V71.6H197.975L203.771 78.896H203.387V71.6H204.263V80H203.531L197.747 72.704H198.131V80H197.243ZM207.005 80V71.6H207.893V80H207.005ZM212.942 80.072C212.318 80.072 211.718 79.972 211.142 79.772C210.574 79.564 210.134 79.3 209.822 78.98L210.17 78.296C210.466 78.584 210.862 78.828 211.358 79.028C211.862 79.22 212.39 79.316 212.942 79.316C213.47 79.316 213.898 79.252 214.226 79.124C214.562 78.988 214.806 78.808 214.958 78.584C215.118 78.36 215.198 78.112 215.198 77.84C215.198 77.512 215.102 77.248 214.91 77.048C214.726 76.848 214.482 76.692 214.178 76.58C213.874 76.46 213.538 76.356 213.17 76.268C212.802 76.18 212.434 76.088 212.066 75.992C211.698 75.888 211.358 75.752 211.046 75.584C210.742 75.416 210.494 75.196 210.302 74.924C210.118 74.644 210.026 74.28 210.026 73.832C210.026 73.416 210.134 73.036 210.35 72.692C210.574 72.34 210.914 72.06 211.37 71.852C211.826 71.636 212.41 71.528 213.122 71.528C213.594 71.528 214.062 71.596 214.526 71.732C214.99 71.86 215.39 72.04 215.726 72.272L215.426 72.98C215.066 72.74 214.682 72.564 214.274 72.452C213.874 72.34 213.486 72.284 213.11 72.284C212.606 72.284 212.19 72.352 211.862 72.488C211.534 72.624 211.29 72.808 211.13 73.04C210.978 73.264 210.902 73.52 210.902 73.808C210.902 74.136 210.994 74.4 211.178 74.6C211.37 74.8 211.618 74.956 211.922 75.068C212.234 75.18 212.574 75.28 212.942 75.368C213.31 75.456 213.674 75.552 214.034 75.656C214.402 75.76 214.738 75.896 215.042 76.064C215.354 76.224 215.602 76.44 215.786 76.712C215.978 76.984 216.074 77.34 216.074 77.78C216.074 78.188 215.962 78.568 215.738 78.92C215.514 79.264 215.17 79.544 214.706 79.76C214.25 79.968 213.662 80.072 212.942 80.072ZM219.523 80V72.368H216.571V71.6H223.363V72.368H220.411V80H219.523ZM223.016 80L226.856 71.6H227.732L231.572 80H230.636L227.108 72.116H227.468L223.94 80H223.016ZM224.528 77.756L224.792 77.036H229.676L229.94 77.756H224.528ZM232.962 80V71.6H236.106C236.818 71.6 237.43 71.716 237.942 71.948C238.454 72.172 238.846 72.5 239.118 72.932C239.398 73.356 239.538 73.872 239.538 74.48C239.538 75.072 239.398 75.584 239.118 76.016C238.846 76.44 238.454 76.768 237.942 77C237.43 77.224 236.818 77.336 236.106 77.336H233.454L233.85 76.928V80H232.962ZM238.698 80L236.538 76.952H237.498L239.67 80H238.698ZM233.85 77L233.454 76.58H236.082C236.922 76.58 237.558 76.396 237.99 76.028C238.43 75.66 238.65 75.144 238.65 74.48C238.65 73.808 238.43 73.288 237.99 72.92C237.558 72.552 236.922 72.368 236.082 72.368H233.454L233.85 71.948V77ZM241.634 80V71.6H242.522V80H241.634ZM248.927 80.072C248.295 80.072 247.707 79.968 247.163 79.76C246.627 79.544 246.159 79.244 245.759 78.86C245.367 78.468 245.059 78.016 244.835 77.504C244.619 76.984 244.511 76.416 244.511 75.8C244.511 75.184 244.619 74.62 244.835 74.108C245.059 73.588 245.367 73.136 245.759 72.752C246.159 72.36 246.627 72.06 247.163 71.852C247.699 71.636 248.287 71.528 248.927 71.528C249.559 71.528 250.143 71.636 250.679 71.852C251.215 72.06 251.679 72.356 252.071 72.74C252.471 73.124 252.779 73.576 252.995 74.096C253.219 74.616 253.331 75.184 253.331 75.8C253.331 76.416 253.219 76.984 252.995 77.504C252.779 78.024 252.471 78.476 252.071 78.86C251.679 79.244 251.215 79.544 250.679 79.76C250.143 79.968 249.559 80.072 248.927 80.072ZM248.927 79.28C249.431 79.28 249.895 79.196 250.319 79.028C250.751 78.852 251.123 78.608 251.435 78.296C251.755 77.976 252.003 77.608 252.179 77.192C252.355 76.768 252.443 76.304 252.443 75.8C252.443 75.296 252.355 74.836 252.179 74.42C252.003 73.996 251.755 73.628 251.435 73.316C251.123 72.996 250.751 72.752 250.319 72.584C249.895 72.408 249.431 72.32 248.927 72.32C248.423 72.32 247.955 72.408 247.523 72.584C247.091 72.752 246.715 72.996 246.395 73.316C246.083 73.628 245.835 73.996 245.651 74.42C245.475 74.836 245.387 75.296 245.387 75.8C245.387 76.296 245.475 76.756 245.651 77.18C245.835 77.604 246.083 77.976 246.395 78.296C246.715 78.608 247.091 78.852 247.523 79.028C247.955 79.196 248.423 79.28 248.927 79.28ZM255.321 80V71.6H256.053L261.849 78.896H261.465V71.6H262.341V80H261.609L255.825 72.704H256.209V80H255.321Z" fill="black"/>
</svg>
